HIERARCHY
ROOT root
{
	OFFSET 0.000000 0.000000 0.000000
	CHANNELS 6 Xposition Yposition Zposition Zrotation Yrotation Xrotation
	JOINT lhip
	{
		OFFSET 0.058581 -0.082280 -0.017664
		CHANNELS 3 Zrotation Yrotation Xrotation
		JOINT lknee
		{
			OFFSET 0.043451 -0.386469 0.008037
			CHANNELS 3 Zrotation Yrotation Xrotation
			JOINT lankle
			{
				OFFSET -0.014790 -0.426874 -0.037428
				CHANNELS 3 Zrotation Yrotation Xrotation
				JOINT ltoe
				{
					OFFSET 0.041054 -0.060286 0.122042
					CHANNELS 3 Zrotation Yrotation Xrotation
					End Site
					{
						OFFSET 0.000000 0.000000 0.000000
					}
				}
			}
		}
	}
	JOINT rhip
	{
		OFFSET -0.060310 -0.090513 -0.013543
		CHANNELS 3 Zrotation Yrotation Xrotation
		JOINT rknee
		{
			OFFSET -0.043257 -0.383688 -0.004843
			CHANNELS 3 Zrotation Yrotation Xrotation
			JOINT rankle
			{
				OFFSET 0.019056 -0.420046 -0.034562
				CHANNELS 3 Zrotation Yrotation Xrotation
				JOINT rtoe
				{
					OFFSET -0.034840 -0.062106 0.130323
					CHANNELS 3 Zrotation Yrotation Xrotation
					End Site
					{
						OFFSET 0.000000 0.000000 0.000000
					}
				}
			}
		}
	}
	JOINT lowerback
	{
		OFFSET 0.004439 0.124404 -0.038385
		CHANNELS 3 Zrotation Yrotation Xrotation
		JOINT upperback
		{
			OFFSET 0.004488 0.137956 0.026820
			CHANNELS 3 Zrotation Yrotation Xrotation
			JOINT chest
			{
				OFFSET -0.002265 0.056032 0.002855
				CHANNELS 3 Zrotation Yrotation Xrotation
				JOINT lowerneck
				{
					OFFSET -0.013390 0.211636 -0.033468
					CHANNELS 3 Zrotation Yrotation Xrotation
					JOINT upperneck
					{
						OFFSET 0.010113 0.088937 0.050410
						CHANNELS 3 Zrotation Yrotation Xrotation
						End Site
						{
							OFFSET 0.000000 0.000000 0.000000
						}
					}
				}
				JOINT lclavicle
				{
					OFFSET 0.071702 0.114000 -0.018898
					CHANNELS 3 Zrotation Yrotation Xrotation
					JOINT lshoulder
					{
						OFFSET 0.122921 0.045205 -0.019046
						CHANNELS 3 Zrotation Yrotation Xrotation
						JOINT lelbow
						{
							OFFSET 0.255332 -0.015649 -0.022946
							CHANNELS 3 Zrotation Yrotation Xrotation
							JOINT lwrist
							{
								OFFSET 0.265709 0.012698 -0.007375
								CHANNELS 3 Zrotation Yrotation Xrotation
								End Site
								{
									OFFSET 0.000000 0.000000 0.000000
								}
							}
						}
					}
				}
				JOINT rclavicle
				{
					OFFSET -0.082954 0.112472 -0.023707
					CHANNELS 3 Zrotation Yrotation Xrotation
					JOINT rshoulder
					{
						OFFSET -0.113228 0.046853 -0.008472
						CHANNELS 3 Zrotation Yrotation Xrotation
						JOINT relbow
						{
							OFFSET -0.260127 -0.014369 -0.031269
							CHANNELS 3 Zrotation Yrotation Xrotation
							JOINT rwrist
							{
								OFFSET -0.269108 0.006794 -0.006027
								CHANNELS 3 Zrotation Yrotation Xrotation
								End Site
								{
									OFFSET 0.000000 0.000000 0.000000
								}
							}
						}
					}
				}
			}
		}
	}
}
MOTION
Frames: 11
Frame Time: 0.033333
0.198325 0.213912 1.354679 -174.772347 -2.506541 95.533168 7.982082 0.906022 -56.978525 -6.040241 18.858390 67.907052 4.422586 9.545393 -19.448242 0.000000 -0.000000 0.000000 -3.157814 -6.187962 -28.969697 8.411466 -17.628000 38.461977 3.361942 -6.111649 -21.680748 0.000000 -0.000000 0.000000 2.580383 4.793796 32.048969 4.917125 -0.761381 -16.979829 1.760431 -0.723235 8.858945 4.450821 -2.441716 10.259222 -0.764738 -7.709627 16.767518 -26.109696 2.731785 2.436882 -34.037936 3.448334 3.457128 18.186547 -30.992462 -12.288300 13.064600 -7.140149 1.432577 25.942070 1.974893 -0.610377 21.176503 10.998843 -2.491198 -15.559910 42.041214 -15.356176 -11.050416 4.546033 -8.334422 
0.197973 0.225327 1.363307 -174.888575 -2.915177 94.789767 5.818394 1.025069 -56.150373 -6.948357 18.992188 59.368754 3.661959 9.194850 -12.000477 0.000000 -0.000000 0.000000 -3.025335 -6.655202 -26.100033 8.107123 -16.877775 36.205475 2.887790 -6.212640 -21.377507 0.000000 -0.000000 0.000000 2.856728 5.071603 31.114517 4.825822 -1.028241 -16.546903 1.578930 -0.490399 9.102021 4.635059 -2.488042 10.606512 -0.891911 -8.702632 17.853465 -26.052000 3.456308 2.196348 -32.946115 5.454768 3.228469 17.505372 -28.047956 -13.865398 12.974320 -6.760365 1.706917 26.338188 1.958135 -1.038988 21.573807 11.674952 -2.058938 -16.127305 43.407599 -16.385581 -11.816098 4.996834 -8.364594 
0.198343 0.236528 1.369375 -175.093856 -3.173077 94.175551 3.810741 1.285301 -53.514440 -7.765348 19.354666 49.682061 1.867197 9.001015 -5.395351 0.000000 -0.000000 0.000000 -2.613844 -6.080013 -23.739045 7.723664 -16.011402 34.496767 2.282270 -7.226744 -21.576876 0.000000 -0.000000 0.000000 2.675453 5.004017 29.779923 4.864545 -1.084406 -15.509994 1.398135 -0.231927 9.027993 5.154394 -2.453160 10.829649 -1.238039 -9.198723 19.276191 -26.019876 4.313471 1.823574 -31.715328 6.863253 2.977713 16.742357 -25.498991 -14.770518 12.549490 -7.197043 2.362195 26.808283 1.805374 -1.335450 22.123755 12.403808 -1.120274 -16.531519 44.607673 -16.819608 -11.284702 5.262813 -8.453173 
0.199561 0.247837 1.371560 -175.320393 -3.290554 93.819774 1.744209 1.678439 -49.936717 -7.876598 19.535744 40.299735 0.816568 9.727905 0.359165 0.000000 -0.000000 0.000000 -2.021878 -4.982849 -22.210775 7.168812 -15.246433 33.886913 1.546491 -8.381714 -22.449747 0.000000 -0.000000 0.000000 2.176989 4.653899 28.125783 4.943206 -1.053220 -14.223013 1.310051 -0.028072 8.507331 5.467179 -2.416125 11.761675 -1.578241 -9.466973 19.695666 -26.048114 5.257254 1.756725 -30.553582 8.055058 2.793499 16.427341 -24.239423 -15.532646 11.267544 -6.862800 3.884159 27.214133 1.429197 -1.282023 22.852651 12.845986 -0.069216 -16.436292 45.930221 -16.521981 -10.639374 5.779030 -8.084084 
0.201419 0.259487 1.369663 -175.528013 -3.078678 93.228729 0.017219 2.601811 -45.918161 -7.252482 19.767390 32.870587 0.273186 10.810028 4.460931 0.000000 -0.000000 0.000000 -0.841648 -3.227974 -20.796190 6.437992 -14.091440 34.016900 0.514926 -9.901914 -24.619880 0.000000 -0.000000 0.000000 1.681869 4.118622 26.796798 5.068404 -0.898487 -13.243423 1.385058 0.088674 8.081370 5.728104 -2.274812 12.818518 -1.841968 -9.505804 19.963729 -26.146940 5.974873 1.778697 -29.438430 9.229745 2.573141 16.080162 -23.596312 -16.509837 9.859744 -6.902642 4.852991 27.471890 1.116408 -1.483444 23.259050 12.514835 1.167320 -15.656369 47.676361 -15.329107 -10.001129 6.295832 -7.156631 
0.203715 0.271220 1.362992 -175.708720 -2.622429 92.495618 -0.806607 3.390320 -41.925812 -6.477723 20.482602 27.256539 0.135408 12.479604 7.476878 0.000000 -0.000000 0.000000 0.762259 -1.165597 -19.537017 5.514121 -13.016844 35.083081 -0.699713 -11.727508 -27.183945 0.000000 -0.000000 0.000000 1.199194 3.543124 25.717588 5.292696 -0.658219 -12.482446 1.536470 0.085982 7.794855 6.085820 -2.026844 13.373668 -2.248492 -9.612862 20.765158 -26.287387 6.560269 1.842692 -28.556422 10.131355 2.603843 15.957601 -23.214445 -17.626233 9.192011 -7.112851 5.456788 27.714964 0.637650 -1.763142 23.167534 11.735125 2.521671 -14.685783 49.609314 -13.699337 -9.644246 7.013052 -6.369244 
0.206018 0.282767 1.352282 -175.832367 -1.818859 91.685114 -0.776944 4.164313 -38.128128 -6.573556 20.150826 22.657493 0.162756 14.291887 10.116273 0.000000 -0.000000 0.000000 2.361710 1.013345 -19.136395 4.627057 -12.997475 37.964454 -1.339284 -13.336228 -29.734470 0.000000 -0.000000 0.000000 1.040799 2.730585 25.119765 5.514958 -0.234888 -12.062970 1.702193 -0.115233 7.730188 6.310964 -1.727642 13.076428 -2.940221 -9.350375 21.984618 -26.215819 6.967893 1.545152 -28.239808 10.836213 2.756979 15.871753 -22.788830 -18.184281 8.837948 -6.994683 5.911584 27.590160 0.130768 -2.466846 23.038961 10.703086 3.677438 -13.289142 51.294686 -11.525156 -9.210354 7.593673 -6.206420 
0.208196 0.293745 1.338947 -175.994348 -0.602972 91.264027 0.036057 5.019244 -35.567797 -6.491988 19.069452 20.061568 1.232079 14.878395 13.226469 0.000000 -0.000000 0.000000 3.884526 3.661651 -19.556167 4.465712 -13.587387 41.204945 -1.754082 -15.100795 -31.760520 0.000000 -0.000000 0.000000 1.213071 1.720851 24.520146 5.832507 0.369071 -11.295912 1.800402 -0.338262 7.142174 6.375622 -1.584683 12.893592 -3.373547 -8.696383 22.749181 -26.165057 7.426417 1.487647 -28.623916 11.104329 2.788198 16.287774 -22.373512 -18.848724 9.115057 -6.970047 5.871191 27.250288 -0.435871 -2.751999 22.956849 9.691420 4.328079 -12.410890 52.463764 -10.317220 -8.945079 8.141192 -6.483389 
0.210412 0.303557 1.325129 -176.511751 0.934738 91.454691 1.437528 6.165376 -34.139791 -6.179581 18.620155 18.447062 2.347449 16.333280 15.909487 0.000000 -0.000000 0.000000 5.260703 5.563735 -20.245766 4.905618 -14.784283 43.726799 -2.510277 -16.078721 -33.406550 0.000000 -0.000000 0.000000 1.650967 0.870335 23.803567 6.166473 0.804051 -10.215509 1.964933 -0.384553 6.025729 6.431546 -1.286306 13.056257 -3.472889 -7.862357 22.888115 -26.509858 7.573812 1.320213 -28.849802 11.489587 2.505133 16.255098 -21.764977 -19.794427 9.384689 -6.704293 5.596500 27.125879 -0.926405 -2.408227 22.419185 8.839546 3.977460 -11.545927 53.175614 -9.364529 -8.676950 8.152481 -7.411610 
0.212903 0.312516 1.312196 -176.984984 2.232362 91.929118 2.266073 7.898257 -33.130715 -5.991343 18.175739 16.709660 3.472512 17.048223 17.655183 0.000000 -0.000000 0.000000 6.284247 6.093945 -21.540198 5.266844 -15.294618 46.900443 -2.912648 -15.987546 -33.933729 0.000000 -0.000000 0.000000 1.674567 0.246008 23.217698 6.507103 0.981876 -9.227590 2.295261 -0.479722 4.840404 6.373114 -1.116912 13.285854 -3.244234 -6.876992 22.465785 -26.923087 7.507343 1.369385 -29.128247 11.812100 2.104018 16.005259 -21.660560 -19.478389 9.583297 -6.062326 5.270993 27.149178 -1.116886 -1.832155 21.850011 8.006423 3.190643 -11.012963 53.070430 -9.112965 -9.041747 8.094623 -7.627830 
0.215006 0.320247 1.300771 -177.159427 3.128557 92.356550 2.512534 9.401464 -31.881334 -6.399879 17.569998 13.814604 3.917866 16.410764 18.971597 0.000000 -0.000000 0.000000 6.802040 6.430521 -23.198265 5.730179 -15.610475 50.613530 -2.480617 -15.865470 -34.906234 0.000000 -0.000000 0.000000 1.376947 -0.411069 23.270909 6.754322 1.153986 -9.264120 2.508169 -0.567329 4.651059 6.650589 -1.092673 12.835620 -2.889101 -6.140044 22.535358 -27.207582 7.249202 1.211148 -29.345026 11.585724 2.276136 15.978383 -21.828345 -19.366081 10.122839 -5.913586 5.428375 27.184395 -1.283702 -1.689286 21.676205 6.948994 2.801919 -11.566608 52.516106 -10.290636 -7.823309 7.970497 -6.555618 
